<?xml version="1.0" encoding="UTF-8"?>
<svg width="24px" height="24px" viewBox="0 0 24 24" version="1.1" xmlns="http://www.w3.org/2000/svg" xmlns:xlink="http://www.w3.org/1999/xlink">
    <!-- Generator: Sketch 56.2 (81672) - https://sketch.com -->
    <title>小小</title>
    <desc>Created with Sketch.</desc>
    <defs>
        <polygon id="path-1" points="2.36553201e-20 4.36363636e-05 2.36553201e-20 23.97888 23.9789673 23.97888 23.9789673 4.36363636e-05 0 4.36363636e-05"></polygon>
    </defs>
    <g id="Examples" stroke="none" stroke-width="1" fill="none" fill-rule="evenodd" opacity="0.800000012">
        <g id="min_prirody_1440-OM-01" transform="translate(-160.000000, -3161.000000)">
            <g id="Footer" transform="translate(0.000000, 2337.000000)">
                <g id="Caption-CC" transform="translate(160.000000, 775.000000)">
                    <g id="小小" transform="translate(0.000000, 49.000000)">
                        <mask id="mask-2" fill="white">
                            <use xlink:href="#path-1"></use>
                        </mask>
                        <g id="Clip-2"></g>
                        <path d="M18.7762036,9.99844364 L17.1922036,10.8336436 C17.0207127,10.4766982 16.8099491,10.2266618 16.5603491,10.0839709 C16.3103127,9.94171636 16.0711855,9.87015273 15.8429673,9.87015273 C14.7725673,9.87015273 14.2375855,10.5766255 14.2375855,11.9895709 C14.2375855,12.6318982 14.3728582,13.1454982 14.6442764,13.5308073 C14.9152582,13.9165527 15.3149673,14.1089891 15.8429673,14.1089891 C16.5424582,14.1089891 17.0346764,13.7664436 17.3204945,13.0813527 L18.8189673,13.8305891 C18.4903855,14.4161891 18.0483491,14.8765527 17.4915491,15.21168 C16.9351855,15.5472436 16.3282036,15.7148073 15.6719127,15.7148073 C14.5871127,15.7148073 13.7200582,15.3866618 13.0707491,14.7299345 C12.4210036,14.0736436 12.0963491,13.1598982 12.0963491,11.9895709 C12.0963491,10.8476073 12.4284218,9.94171636 13.0921309,9.27058909 C13.75584,8.59946182 14.5940945,8.26433455 15.6077673,8.26433455 C17.09184,8.26433455 18.1482764,8.84251636 18.7762036,9.99844364 M11.8607127,9.99844364 L10.2553309,10.8336436 C10.08384,10.4766982 9.87307636,10.2266618 9.62347636,10.0839709 C9.37387636,9.94171636 9.14173091,9.87015273 8.92791273,9.87015273 C7.85751273,9.87015273 7.32209455,10.5766255 7.32209455,11.9895709 C7.32209455,12.6318982 7.45780364,13.1454982 7.72878545,13.5308073 C7.99976727,13.9165527 8.39947636,14.1089891 8.92791273,14.1089891 C9.62696727,14.1089891 10.1196218,13.7664436 10.4050036,13.0813527 L11.8825309,13.8305891 C11.5683491,14.4161891 11.1328582,14.8765527 10.5760582,15.21168 C10.0196945,15.5472436 9.40573091,15.7148073 8.73504,15.7148073 C7.66464,15.7148073 6.80107636,15.3866618 6.14478545,14.7299345 C5.48805818,14.0736436 5.15947636,13.1598982 5.15947636,11.9895709 C5.15947636,10.8476073 5.49154909,9.94171636 6.15525818,9.27058909 C6.81896727,8.59946182 7.65722182,8.26433455 8.67089455,8.26433455 C10.1554036,8.26433455 11.2188218,8.84251636 11.8607127,9.99844364 M12.0108218,2.16222545 C9.27045818,2.16222545 6.96514909,3.11873455 5.09533091,5.03131636 C4.15365818,5.98782545 3.42885818,7.06215273 2.92224,8.25342545 C2.41562182,9.44557091 2.16253091,10.6909527 2.16253091,11.9895709 C2.16253091,13.2742255 2.41562182,14.5126255 2.92224,15.7038982 C3.42885818,16.8960436 4.15365818,17.9594618 5.09533091,18.8941527 C6.03744,19.82928 7.10085818,20.5427345 8.28558545,21.0349527 C9.46987636,21.5276073 10.7117673,21.7737164 12.0108218,21.7737164 C13.2954764,21.7737164 14.5404218,21.5241164 15.7469673,21.02448 C16.95264,20.5248436 18.0409309,19.8039709 19.01184,18.8618618 C20.8816582,17.0352436 21.8163491,14.7443345 21.8163491,11.9895709 C21.8163491,10.6621527 21.5737309,9.40629818 21.0884945,8.22157091 C20.6032582,7.03684364 19.8963491,5.98084364 18.9690764,5.05269818 C17.0420945,3.12571636 14.7223855,2.16222545 12.0108218,2.16222545 M11.9680582,4.36363636e-05 C15.3219491,4.36363636e-05 18.17664,1.17080727 20.5316945,3.51146182 C21.6592582,4.63902545 22.5154036,5.92717091 23.1010036,7.37589818 C23.6861673,8.82462545 23.9789673,10.3623709 23.9789673,11.9895709 C23.9789673,13.6311709 23.6896582,15.1689164 23.1119127,16.6032436 C22.5337309,18.0375709 21.68064,19.3047709 20.5530764,20.4035345 C19.3827491,21.5594618 18.0553309,22.4448436 16.5712582,23.0583709 C15.0863127,23.6718982 13.5524945,23.9790982 11.9680582,23.9790982 C10.3836218,23.9790982 8.86725818,23.6758255 7.41853091,23.0688436 C5.96936727,22.4622982 4.67074909,21.5847709 3.52180364,20.4353891 C2.37285818,19.28688 1.49882182,17.9913164 0.899258182,16.5500073 C0.299694545,15.1082618 -8.72727273e-05,13.5884073 -8.72727273e-05,11.9895709 C-8.72727273e-05,10.4051345 0.303185455,8.88178909 0.910167273,7.41866182 C1.51627636,5.95553455 2.39773091,4.64600727 3.55409455,3.48964364 C5.83758545,1.16338909 8.64209455,4.36363636e-05 11.9680582,4.36363636e-05" id="Fill-1" fill="#DDE1E6" mask="url(#mask-2)"></path>
                    </g>
                </g>
            </g>
        </g>
    </g>
</svg>