<svg xmlns="http://www.w3.org/2000/svg" xmlns:xlink="http://www.w3.org/1999/xlink" width="24" height="24" viewBox="0 0 24 24">
    <defs>
        <path id="a" d="M12.485 4.37a2.392 2.392 0 0 1 2.399 2.381 2.392 2.392 0 0 1-2.399 2.38 2.393 2.393 0 0 1-2.398-2.38 2.393 2.393 0 0 1 2.398-2.38zm0 8.13c-3.194 0-5.792-2.578-5.792-5.749S9.291 1 12.485 1c3.195 0 5.792 2.58 5.792 5.751 0 3.17-2.597 5.75-5.792 5.75zm2.359 4.695l3.238 3.215a1.675 1.675 0 0 1 0 2.382 1.704 1.704 0 0 1-2.399 0l-3.184-3.16-3.18 3.16a1.701 1.701 0 0 1-1.201.493 1.7 1.7 0 0 1-1.2-.493 1.677 1.677 0 0 1 0-2.382l3.238-3.215a10.912 10.912 0 0 1-3.363-1.383 1.678 1.678 0 0 1-.532-2.324 1.702 1.702 0 0 1 2.34-.53 7.399 7.399 0 0 0 7.798 0 1.703 1.703 0 0 1 2.34.53c.5.787.26 1.827-.532 2.324a10.895 10.895 0 0 1-3.363 1.383z"/>
    </defs>
    <g fill="none" fill-rule="evenodd">
        <path d="M0 0h24v24H0z"/>
        <mask id="b" fill="#fff">
            <use xlink:href="#a"/>
        </mask>
        <use fill="#FFF" xlink:href="#a"/>
        <g fill="#dde1e6" mask="url(#b)">
            <rect width="24" height="24" rx="4"/>
        </g>
    </g>
</svg>
